<svg xmlns="http://www.w3.org/2000/svg" viewBox="0 0 1400 460" width="1400" height="460" font-family="'Cormorant Garamond', 'Playfair Display', 'Georgia', 'Times New Roman', serif">
  <rect width="1400" height="460" fill="#1F2A44"/>
  <g transform="translate(230, 230)">
    <g transform="translate(0, -178)">
      <path d="M -12,8 Q -14,-2 -8,-12 Q 0,-22 8,-12 Q 14,-2 12,8 Z" fill="#B88A2C"/>
      <circle cx="-22" cy="6" r="2.5" fill="#B88A2C" opacity="0.85"/>
      <circle cx="22" cy="6" r="2.5" fill="#B88A2C" opacity="0.85"/>
      <line x1="-30" y1="14" x2="30" y2="14" stroke="#B88A2C" stroke-width="1" opacity="0.5"/>
    </g>
    <circle cx="0" cy="0" r="155" fill="none" stroke="#B88A2C" stroke-width="3"/>
    <circle cx="0" cy="0" r="140" fill="none" stroke="#B88A2C" stroke-width="0.8" opacity="0.6"/>
    <circle cx="0" cy="0" r="138" fill="#1F2A44"/>
    <g fill="#B88A2C" opacity="0.85">
      <circle cx="0" cy="-148" r="3"/><circle cx="0" cy="148" r="3"/>
      <circle cx="-148" cy="0" r="3"/><circle cx="148" cy="0" r="3"/>
      <circle cx="-105" cy="-105" r="2"/><circle cx="105" cy="-105" r="2"/>
      <circle cx="-105" cy="105" r="2"/><circle cx="105" cy="105" r="2"/>
    </g>
    <text x="0" y="38" text-anchor="middle" font-size="170" font-weight="600"
          fill="#DCBE7B" letter-spacing="-2">AP</text>
    <line x1="-50" y1="78" x2="50" y2="78" stroke="#B88A2C" stroke-width="0.8" opacity="0.7"/>
    <circle cx="0" cy="78" r="2" fill="#B88A2C"/>
    <g transform="translate(0, 178)">
      <line x1="-18" y1="-8" x2="18" y2="-8" stroke="#B88A2C" stroke-width="1" opacity="0.5"/>
      <circle cx="-22" cy="-6" r="2" fill="#B88A2C" opacity="0.85"/>
      <circle cx="22" cy="-6" r="2" fill="#B88A2C" opacity="0.85"/>
      <path d="M -8,-2 Q 0,8 8,-2 L 0,12 Z" fill="#B88A2C"/>
    </g>
  </g>
  <line x1="490" y1="140" x2="490" y2="320" stroke="#B88A2C" stroke-width="1" opacity="0.45"/>
  <g transform="translate(540, 200)">
    <text x="0" y="0" font-size="68" font-weight="500" fill="#FAF6EE" letter-spacing="6">AP VILLAS &amp; RESORTS</text>
    <g transform="translate(0, 30)">
      <line x1="0" y1="0" x2="240" y2="0" stroke="#B88A2C" stroke-width="0.8"/>
      <circle cx="252" cy="0" r="3" fill="#B88A2C"/>
      <line x1="264" y1="0" x2="504" y2="0" stroke="#B88A2C" stroke-width="0.8"/>
    </g>
    <text x="0" y="78" font-size="28" font-style="italic" fill="#FAF6EE" opacity="0.85" letter-spacing="2">Your rest, our reverence.</text>
    <text x="0" y="120" font-size="14" font-weight="500" fill="#DCBE7B" letter-spacing="6">MAHAKAL  COLLECTION  ·  UJJAIN</text>
  </g>
</svg>